<svg width="31" height="30" viewBox="0 0 31 30" fill="none" xmlns="http://www.w3.org/2000/svg">
<path d="M25.64 6.94601C23.216 4.99801 19.383 4.66801 19.221 4.65401C18.965 4.63201 18.722 4.77701 18.617 5.01101C18.613 5.01901 18.399 5.64001 18.192 6.23901C21.009 6.73201 22.923 7.82601 23.025 7.88601C23.503 8.16401 23.663 8.77701 23.384 9.25401C23.199 9.57201 22.864 9.75001 22.52 9.75001C22.349 9.75001 22.177 9.70701 22.019 9.61501C21.991 9.59801 19.183 8.00001 15.522 8.00001C11.86 8.00001 9.05102 9.59901 9.02302 9.61501C8.54602 9.89201 7.93402 9.72901 7.65702 9.25101C7.38002 8.77501 7.54102 8.16401 8.01702 7.88601C8.11902 7.82601 10.04 6.72801 12.865 6.23601C12.647 5.63001 12.427 5.01901 12.423 5.01101C12.318 4.77601 12.075 4.62801 11.819 4.65401C11.657 4.66701 7.82402 4.99701 5.36802 6.97201C4.08402 8.15801 1.52002 15.092 1.52002 21.087C1.52002 21.193 1.54702 21.296 1.60002 21.388C3.37102 24.498 8.19902 25.312 9.29902 25.347C9.30602 25.348 9.31202 25.348 9.31802 25.348C9.51202 25.348 9.69502 25.255 9.81002 25.098L11 23.486C8.39002 22.857 7.01002 21.868 6.92702 21.807C6.48302 21.48 6.38702 20.854 6.71402 20.409C7.04002 19.966 7.66402 19.868 8.10802 20.193C8.14502 20.217 10.692 22 15.52 22C20.367 22 22.907 20.21 22.932 20.192C23.376 19.87 24.002 19.967 24.327 20.413C24.651 20.857 24.557 21.479 24.115 21.805C24.032 21.866 22.659 22.853 20.055 23.482L21.23 25.097C21.345 25.255 21.528 25.347 21.722 25.347C21.729 25.347 21.735 25.347 21.741 25.346C22.842 25.311 27.67 24.497 29.44 21.387C29.493 21.295 29.52 21.192 29.52 21.086C29.52 15.092 26.956 8.15801 25.64 6.94601ZM11.52 19C10.415 19 9.52002 17.881 9.52002 16.5C9.52002 15.119 10.415 14 11.52 14C12.625 14 13.52 15.119 13.52 16.5C13.52 17.881 12.625 19 11.52 19ZM19.52 19C18.415 19 17.52 17.881 17.52 16.5C17.52 15.119 18.415 14 19.52 14C20.625 14 21.52 15.119 21.52 16.5C21.52 17.881 20.625 19 19.52 19Z" fill="#137CE7"/>
</svg>
