<svg width="18" height="19" viewBox="0 0 18 19" fill="none" xmlns="http://www.w3.org/2000/svg">
<g clip-path="url(#clip0_1_232)">
<path d="M9 0.78125C4.18511 0.78125 0.28125 4.68651 0.28125 9.5C0.28125 14.3163 4.18511 18.2188 9 18.2188C13.8149 18.2188 17.7188 14.3163 17.7188 9.5C17.7188 4.68651 13.8149 0.78125 9 0.78125ZM9 4.64844C9.81548 4.64844 10.4766 5.30952 10.4766 6.125C10.4766 6.94048 9.81548 7.60156 9 7.60156C8.18452 7.60156 7.52344 6.94048 7.52344 6.125C7.52344 5.30952 8.18452 4.64844 9 4.64844ZM10.9688 13.5781C10.9688 13.8111 10.7799 14 10.5469 14H7.45312C7.22014 14 7.03125 13.8111 7.03125 13.5781V12.7344C7.03125 12.5014 7.22014 12.3125 7.45312 12.3125H7.875V10.0625H7.45312C7.22014 10.0625 7.03125 9.87361 7.03125 9.64062V8.79688C7.03125 8.56389 7.22014 8.375 7.45312 8.375H9.70312C9.93611 8.375 10.125 8.56389 10.125 8.79688V12.3125H10.5469C10.7799 12.3125 10.9688 12.5014 10.9688 12.7344V13.5781Z" fill="#A0B5CF"/>
</g>
<defs>
<clipPath id="clip0_1_232">
<rect width="18" height="18" fill="white" transform="translate(0 0.5)"/>
</clipPath>
</defs>
</svg>
