<svg width="27" height="26" viewBox="0 0 27 26" fill="none" xmlns="http://www.w3.org/2000/svg">
<g clip-path="url(#clip0_1_1884)">
<path d="M23.8473 7.70432C23.8639 7.93527 23.8639 8.16628 23.8639 8.39722C23.8639 15.4417 18.5023 23.5583 8.70275 23.5583C5.68371 23.5583 2.87917 22.6839 0.52002 21.1663C0.948969 21.2157 1.36136 21.2322 1.80682 21.2322C4.29788 21.2322 6.59107 20.3909 8.42229 18.9557C6.07965 18.9062 4.11644 17.3719 3.44004 15.2602C3.77002 15.3096 4.09995 15.3426 4.44642 15.3426C4.92484 15.3426 5.4033 15.2767 5.84869 15.1612C3.40709 14.6662 1.57581 12.5216 1.57581 9.93148V9.86552C2.28517 10.2615 3.11011 10.5089 3.98442 10.5419C2.54914 9.58501 1.60882 7.95178 1.60882 6.10405C1.60882 5.11422 1.87273 4.20687 2.33469 3.41499C4.95779 6.64848 8.9007 8.76012 13.322 8.99112C13.2395 8.59517 13.19 8.18278 13.19 7.77034C13.19 4.83375 15.5657 2.44165 18.5186 2.44165C20.0529 2.44165 21.4387 3.08506 22.412 4.1244C23.6163 3.89344 24.7711 3.44799 25.7941 2.83759C25.3981 4.07493 24.5568 5.11427 23.4514 5.77412C24.5237 5.6587 25.5631 5.36168 26.5199 4.94929C25.7941 6.00508 24.8867 6.9454 23.8473 7.70432Z" fill="#137CE7"/>
</g>
<defs>
<clipPath id="clip0_1_1884">
<rect width="26" height="26" fill="white" transform="translate(0.52002)"/>
</clipPath>
</defs>
</svg>
